# xmcd CD database file
#
# Track frame offsets:
#	150
#	24644
#	61166
#	95781
#	135355
#	172198
#
# Disc length: 2894 seconds
#
# Revision: 0
# Processed by: cddbd v1.5PL3 Copyright (c) Steve Scherf et al.
# Submitted via: CDex 1.51
#
DISCID=4d0b4c06
DTITLE=Gomer Edwin Evans - Body Music Vol 02
DYEAR=2001
DGENRE=New Age
TTITLE0=Body Music
TTITLE1=Wild Roses
TTITLE2=Echoes of Spring
TTITLE3=Layed Back
TTITLE4=Drifting Away
TTITLE5=Gomer Edwin Evans - Ocean Dreams
EXTD=YEAR: 2001
EXTT0=
EXTT1=
EXTT2=
EXTT3=
EXTT4=
EXTT5=
PLAYORDER=
